<?xml version="1.0" encoding="UTF-8" standalone="no"?>
<svg
   xmlns:dc="http://purl.org/dc/elements/1.1/"
   xmlns:cc="http://creativecommons.org/ns#"
   xmlns:rdf="http://www.w3.org/1999/02/22-rdf-syntax-ns#"
   xmlns:svg="http://www.w3.org/2000/svg"
   xmlns="http://www.w3.org/2000/svg"
   xmlns:sodipodi="http://sodipodi.sourceforge.net/DTD/sodipodi-0.dtd"
   xmlns:inkscape="http://www.inkscape.org/namespaces/inkscape"
   width="456"
   height="456"
   viewBox="0 0 456 456"
   version="1.1"
   xml:space="preserve"
   style="fill-rule:evenodd;clip-rule:evenodd;stroke-linejoin:round;stroke-miterlimit:2;"
   id="svg10"
   sodipodi:docname="appiconfg.svg"
   inkscape:version="0.92.2 (5c3e80d, 2017-08-06)"><metadata
     id="metadata16"><rdf:RDF><cc:Work
         rdf:about=""><dc:format>image/svg+xml</dc:format><dc:type
           rdf:resource="http://purl.org/dc/dcmitype/StillImage" /><dc:title></dc:title></cc:Work></rdf:RDF></metadata><defs
     id="defs14" /><sodipodi:namedview
     pagecolor="#ffffff"
     bordercolor="#666666"
     borderopacity="1"
     objecttolerance="10"
     gridtolerance="10"
     guidetolerance="10"
     inkscape:pageopacity="0"
     inkscape:pageshadow="2"
     inkscape:window-width="1920"
     inkscape:window-height="1009"
     id="namedview12"
     showgrid="false"
     inkscape:zoom="0.51754386"
     inkscape:cx="228"
     inkscape:cy="228"
     inkscape:window-x="-8"
     inkscape:window-y="-8"
     inkscape:window-maximized="1"
     inkscape:current-layer="svg10" /><path
     style="fill:#ffffff;fill-opacity:1;stroke-width:0.28918889"
     inkscape:connector-curvature="0"
     id="path6"
     d="m 261.11746,188.46623 c 0,-20.24323 -16.36809,-36.66915 -36.55348,-36.66915 -20.18539,0 -36.55348,16.39701 -36.55348,36.66915 0,20.24322 16.36809,36.64022 36.55348,36.64022 20.2143,0.029 36.55348,-16.397 36.55348,-36.64022 z m -56.21833,0 c 0,-10.87351 8.82027,-19.75161 19.66485,-19.75161 10.84458,0 19.66485,8.84919 19.66485,19.75161 0,10.90241 -8.82027,19.72268 -19.66485,19.72268 -10.81567,0.0289 -19.66485,-8.84918 -19.66485,-19.72268 z m -5.00296,119.29041 c 3.81729,-2.68946 4.74269,-7.95269 2.08216,-11.76998 -34.35564,-49.33563 -53.29752,-87.50857 -53.29752,-107.52043 0,-41.99023 34.03753,-76.14345 75.91208,-76.14345 41.84564,0 75.9121,34.15322 75.9121,76.14345 0,35.85942 -59.544,118.24933 -82.47668,146.96579 -2.9208,3.64378 -2.34243,8.96486 1.30135,11.88566 1.56162,1.24352 3.41243,1.85081 5.26323,1.85081 2.45811,0 4.91622,-1.09892 6.59351,-3.15216 3.52811,-4.39567 86.17829,-108.44583 86.17829,-157.5501 0,-51.30211 -41.61427,-93.060991 -92.7718,-93.060991 -51.15751,0 -92.77179,41.729951 -92.77179,93.060991 0,24.11835 18.94187,63.56372 56.334,117.20826 2.66053,3.81729 7.92378,4.74269 11.74107,2.08215 z m 161.71443,57.77994 -39.35862,-90.22693 c -1.8508,-4.28 -6.85376,-6.24647 -11.10485,-4.36675 -4.28,1.87973 -6.21756,6.85377 -4.33783,11.13377 l 34.18213,78.37019 H 108.16544 l 34.18214,-78.37019 c 1.87972,-4.28 -0.0868,-9.25404 -4.33784,-11.13377 -4.28,-1.87972 -9.25404,0.0868 -11.10485,4.36675 l -39.358608,90.22693 c -1.15676,2.60271 -0.896488,5.63919 0.66513,8.01054 1.561619,2.40027 4.222161,3.81729 7.056213,3.81729 H 353.88926 c 2.83404,0 5.49458,-1.44594 7.0562,-3.81729 1.56162,-2.37135 1.82189,-5.40783 0.66514,-8.01054 z" /></svg>