<?xml version="1.0" encoding="UTF-8" standalone="no"?>
<!-- Created with Inkscape (http://www.inkscape.org/) -->

<svg
   xmlns:dc="http://purl.org/dc/elements/1.1/"
   xmlns:cc="http://creativecommons.org/ns#"
   xmlns:rdf="http://www.w3.org/1999/02/22-rdf-syntax-ns#"
   xmlns:svg="http://www.w3.org/2000/svg"
   xmlns="http://www.w3.org/2000/svg"
   xmlns:sodipodi="http://sodipodi.sourceforge.net/DTD/sodipodi-0.dtd"
   xmlns:inkscape="http://www.inkscape.org/namespaces/inkscape"
   width="202.84721mm"
   height="179.88225mm"
   viewBox="0 0 202.84721 179.88225"
   version="1.1"
   id="svg5086"
   inkscape:version="0.92.2 (5c3e80d, 2017-08-06)"
   sodipodi:docname="jtcWhatsNearby.svg">
  <defs
     id="defs5080" />
  <sodipodi:namedview
     id="base"
     pagecolor="#ffffff"
     bordercolor="#666666"
     borderopacity="1.0"
     inkscape:pageopacity="0.0"
     inkscape:pageshadow="2"
     inkscape:zoom="1.2355305"
     inkscape:cx="241.28907"
     inkscape:cy="339.93496"
     inkscape:document-units="mm"
     inkscape:current-layer="layer1"
     showgrid="false"
     inkscape:window-width="1920"
     inkscape:window-height="1009"
     inkscape:window-x="-8"
     inkscape:window-y="-8"
     inkscape:window-maximized="1" />
  <metadata
     id="metadata5083">
    <rdf:RDF>
      <cc:Work
         rdf:about="">
        <dc:format>image/svg+xml</dc:format>
        <dc:type
           rdf:resource="http://purl.org/dc/dcmitype/StillImage" />
        <dc:title></dc:title>
      </cc:Work>
    </rdf:RDF>
  </metadata>
  <g
     inkscape:label="Layer 1"
     inkscape:groupmode="layer"
     id="layer1"
     transform="translate(-5.1656774,-56.624382)">
    <g
       aria-label="jtcWhatsNearby"
       style="font-style:normal;font-variant:normal;font-weight:bold;font-stretch:normal;font-size:16.67910385px;line-height:1.25;font-family:Consolas;-inkscape-font-specification:'Consolas Bold';font-variant-ligatures:normal;font-variant-caps:normal;font-variant-numeric:normal;text-align:start;letter-spacing:0px;word-spacing:0px;writing-mode:lr-tb;text-anchor:start;fill:#000000;fill-opacity:1;stroke:none;stroke-width:0.34748131"
       id="text1380">
      <g
         id="g1427"
         style="fill:#ffffff;fill-opacity:1">
        <path
           inkscape:connector-curvature="0"
           id="path4504"
           d="m 70.792721,57.197059 c -0.09547,0.334095 -4.20013,19.425601 -9.068464,42.38315 -4.916064,22.957521 -9.116194,42.574031 -9.35484,43.528621 l -0.477285,1.81368 h -8.066159 -8.113891 v 5.48882 5.4888 h 6.92067 c 3.818302,0 6.920671,0.0953 6.920671,0.23864 0,0.95458 -6.013824,28.11224 -6.968399,31.50098 -3.8183,13.45952 -10.548057,18.5665 -23.530277,17.75511 -3.961487,-0.23865 -10.2139546,-1.24094 -13.0299523,-2.05234 -0.8113883,-0.23864 -0.8591173,0.71593 -0.8591173,15.27319 0,14.31865 0.047729,15.51186 0.8113884,15.7505 4.3910462,1.38414 8.4479922,1.8137 18.2801162,2.05234 8.686633,0.19092 11.598086,0.0955 15.273201,-0.52501 11.550358,-2.00461 18.996045,-5.72745 25.3917,-12.64812 3.484198,-3.72286 5.059246,-6.01382 7.779787,-11.31171 4.104674,-7.97071 6.252469,-15.7505 12.743577,-46.39237 l 2.052336,-9.64121 h 14.891377 c 8.20935,0 14.93911,0.1432 14.93911,0.38183 0,0.19093 -1.71825,8.44799 -3.81831,18.37558 -2.10007,9.92758 -3.8183,18.32784 -3.8183,18.70967 0,0.62048 5.2979,0.71594 40.76037,0.71594 24.00755,0 40.90353,-0.19092 41.04672,-0.42956 0.33409,-0.52502 6.49111,-28.97137 6.49111,-29.92594 0,-0.57275 -3.4842,-0.6682 -21.95523,-0.6682 -24.86668,0 -22.43252,0.47729 -21.28703,-4.29559 l 0.62047,-2.62509 26.29855,-0.14317 26.34627,-0.0954 v -5.48881 -5.4888 H 182.9553 c -16.4187,0 -25.05759,-0.14319 -25.05759,-0.47729 0,-0.28638 4.05694,-19.85517 9.06845,-43.52862 5.01152,-23.721211 9.06848,-43.337731 9.06848,-43.671826 -1e-5,-0.47729 -3.96149,-0.620472 -18.80514,-0.620472 h -18.80513 l -0.23864,1.288676 c -1.43186,7.063856 -18.0892,85.529932 -18.28011,86.150402 -0.23865,0.81139 -1.38413,0.85911 -15.03457,0.85911 -13.745879,0 -14.748182,-0.0478 -14.748182,-0.85911 0.04773,-0.42956 4.200129,-20.14154 9.259377,-43.76727 5.106975,-23.625739 9.163925,-43.099068 9.020735,-43.337712 -0.0954,-0.190914 -8.591174,-0.334096 -18.80513,-0.334096 -14.461815,0 -18.661944,0.143182 -18.805129,0.57274 z"
           style="fill:#ffffff;fill-opacity:1;stroke:none;stroke-width:0.04772877" />
        <path
           inkscape:connector-curvature="0"
           id="path1382"
           style="stroke-width:0.34748131;fill:#ffffff;fill-opacity:1"
           d="m 86.771771,232.84993 q 0,0.92842 -0.2769,1.61253 -0.268755,0.69225 -0.781833,1.14017 -0.504933,0.45607 -1.221614,0.67596 -0.708536,0.22803 -1.588098,0.22803 -0.71668,0 -1.335631,-0.12216 -0.618951,-0.12216 -1.018012,-0.29318 V 234.267 q 0.228035,0.12216 0.513078,0.23618 0.293187,0.12216 0.602663,0.21174 0.31762,0.0977 0.643383,0.1466 0.325764,0.057 0.643384,0.057 0.903994,0 1.351919,-0.52123 0.447925,-0.52122 0.447925,-1.53109 v -6.50713 h -3.933597 v -1.54737 h 5.953333 z m 0.162881,-10.30228 q 0,0.26875 -0.09773,0.50493 -0.09773,0.23618 -0.276899,0.41535 -0.171026,0.17103 -0.415349,0.2769 -0.236178,0.0977 -0.513078,0.0977 -0.276899,0 -0.513077,-0.0977 -0.236179,-0.10587 -0.415349,-0.2769 -0.171026,-0.17917 -0.268755,-0.41535 -0.09773,-0.23618 -0.09773,-0.50493 0,-0.26876 0.09773,-0.50494 0.09773,-0.23617 0.268755,-0.41534 0.17917,-0.17917 0.415349,-0.2769 0.236178,-0.10588 0.513077,-0.10588 0.2769,0 0.513078,0.10588 0.244323,0.0977 0.415349,0.2769 0.17917,0.17917 0.276899,0.41534 0.09773,0.23618 0.09773,0.50494 z" />
        <path
           inkscape:connector-curvature="0"
           id="path1384"
           style="stroke-width:0.34748131;fill:#ffffff;fill-opacity:1"
           d="m 96.723853,233.00466 q -0.53751,0.12217 -1.083164,0.19546 -0.545655,0.0733 -1.0343,0.0733 -0.81441,0 -1.408928,-0.17103 -0.586375,-0.17102 -0.977292,-0.52122 -0.382772,-0.35019 -0.570086,-0.8877 -0.17917,-0.54566 -0.17917,-1.29492 v -4.03947 h -2.223338 v -1.54737 h 2.223338 v -2.11747 l 2.036023,-0.52936 v 2.64683 h 3.216917 v 1.54737 h -3.216917 v 3.89288 q 0,0.70854 0.325764,1.07502 0.325764,0.35834 1.091308,0.35834 0.488646,0 0.952859,-0.0814 0.464214,-0.0814 0.846986,-0.18731 z" />
        <path
           inkscape:connector-curvature="0"
           id="path1386"
           style="stroke-width:0.34748131;fill:#ffffff;fill-opacity:1"
           d="m 105.78009,232.76849 q -0.58638,0.23617 -1.21347,0.35019 -0.6271,0.11402 -1.3112,0.11402 -0.98544,0 -1.76727,-0.26876 -0.78183,-0.26875 -1.32749,-0.79812 -0.545654,-0.52936 -0.838841,-1.3112 -0.285043,-0.78183 -0.285043,-1.80799 0,-0.99357 0.309475,-1.79984 0.31762,-0.80627 0.887709,-1.37635 0.57008,-0.57009 1.36821,-0.87956 0.80626,-0.30948 1.7917,-0.30948 0.80626,0 1.35192,0.0896 0.55379,0.0814 0.99357,0.21174 v 1.93015 q -0.50493,-0.25246 -1.09945,-0.39091 -0.58637,-0.13845 -1.11574,-0.13845 -0.5538,0 -0.99358,0.18731 -0.43978,0.18731 -0.74111,0.52122 -0.30133,0.33391 -0.46421,0.81441 -0.15474,0.47236 -0.15474,1.04245 0,0.59451 0.17102,1.06687 0.17103,0.47236 0.48051,0.80627 0.31762,0.32576 0.7574,0.50493 0.43978,0.17103 0.97729,0.17103 0.26061,0 0.54565,-0.0326 0.29319,-0.0407 0.57823,-0.10587 0.29319,-0.0733 0.57009,-0.16288 0.28504,-0.0896 0.52937,-0.19546 z" />
        <path
           inkscape:connector-curvature="0"
           id="path1388"
           style="stroke-width:0.34748131;fill:#ffffff;fill-opacity:1"
           d="m 115.44712,233.08611 h -2.35364 l -1.05059,-3.28207 -0.38277,-1.33564 -0.36648,1.36821 -1.0343,3.2495 h -2.25592 l -0.59452,-10.64434 h 1.76727 l 0.25247,6.82476 0.0652,1.86499 0.4805,-1.66139 1.17275,-3.78701 h 1.26234 l 1.2379,4.01504 0.39906,1.41707 0.0326,-1.66139 0.26875,-7.01207 h 1.70212 z" />
        <path
           inkscape:connector-curvature="0"
           id="path1390"
           style="stroke-width:0.34748131;fill:#ffffff;fill-opacity:1"
           d="m 122.39404,233.08611 v -5.39139 q 0,-1.36007 -1.00987,-1.36007 -0.50493,0 -0.96915,0.40721 -0.45607,0.4072 -0.96915,1.10759 v 5.23666 h -1.98715 V 221.5785 h 1.98715 v 2.83415 l -0.0977,1.49851 q 0.25246,-0.30133 0.51307,-0.53751 0.26061,-0.24432 0.56195,-0.40721 0.30133,-0.16288 0.65152,-0.24432 0.3502,-0.0896 0.77369,-0.0896 0.63524,0 1.1076,0.21174 0.47236,0.2036 0.78998,0.58638 0.31762,0.37463 0.47235,0.91214 0.16289,0.52936 0.16289,1.18903 v 5.55428 z" />
        <path
           inkscape:connector-curvature="0"
           id="path1392"
           style="stroke-width:0.34748131;fill:#ffffff;fill-opacity:1"
           d="m 131.83304,233.08611 -0.0489,-1.08317 q -0.26061,0.2769 -0.54566,0.51308 -0.28504,0.22803 -0.62709,0.39906 -0.34205,0.17103 -0.74926,0.26061 -0.39906,0.0977 -0.87956,0.0977 -0.63524,0 -1.11574,-0.18731 -0.4805,-0.18732 -0.80627,-0.52123 -0.32576,-0.3339 -0.49679,-0.80626 -0.16288,-0.47236 -0.16288,-1.04245 0,-0.58637 0.24432,-1.08316 0.25247,-0.49679 0.75741,-0.85513 0.51307,-0.35834 1.27047,-0.56194 0.76555,-0.20361 1.7917,-0.20361 h 1.08317 v -0.49678 q 0,-0.31762 -0.0896,-0.57009 -0.0896,-0.26061 -0.29318,-0.43978 -0.19546,-0.17917 -0.51308,-0.2769 -0.31762,-0.0977 -0.78183,-0.0977 -0.73297,0 -1.44965,0.17103 -0.70854,0.16288 -1.37635,0.46421 v -1.5881 q 0.59451,-0.23618 1.3682,-0.39092 0.78184,-0.15473 1.62068,-0.15473 0.92028,0 1.57995,0.17917 0.65967,0.17102 1.08317,0.52122 0.43163,0.35019 0.63524,0.87956 0.2036,0.52122 0.2036,1.22161 v 5.65201 z m -0.28504,-3.6567 h -1.21347 q -0.50493,0 -0.85513,0.0977 -0.3502,0.0977 -0.57009,0.26875 -0.21989,0.17103 -0.32576,0.39906 -0.0977,0.21989 -0.0977,0.47236 0,0.50493 0.32576,0.77369 0.32577,0.26061 0.88771,0.26061 0.41535,0 0.86327,-0.30133 0.44793,-0.30133 0.98544,-0.86328 z" />
        <path
           inkscape:connector-curvature="0"
           id="path1394"
           style="stroke-width:0.34748131;fill:#ffffff;fill-opacity:1"
           d="m 142.65654,233.00466 q -0.53751,0.12217 -1.08316,0.19546 -0.54566,0.0733 -1.0343,0.0733 -0.81441,0 -1.40893,-0.17103 -0.58638,-0.17102 -0.97729,-0.52122 -0.38278,-0.35019 -0.57009,-0.8877 -0.17917,-0.54566 -0.17917,-1.29492 v -4.03947 h -2.22334 v -1.54737 h 2.22334 v -2.11747 l 2.03602,-0.52936 v 2.64683 h 3.21692 v 1.54737 h -3.21692 v 3.89288 q 0,0.70854 0.32577,1.07502 0.32576,0.35834 1.09131,0.35834 0.48864,0 0.95285,-0.0814 0.46422,-0.0814 0.84699,-0.18731 z" />
        <path
           inkscape:connector-curvature="0"
           id="path1396"
           style="stroke-width:0.34748131;fill:#ffffff;fill-opacity:1"
           d="m 151.84308,230.65102 q 0,0.70854 -0.31762,1.21347 -0.30948,0.49679 -0.8307,0.81441 -0.51308,0.30948 -1.17275,0.44793 -0.65153,0.14659 -1.33563,0.14659 -0.91214,0 -1.64511,-0.0896 -0.73296,-0.0814 -1.38449,-0.24432 v -1.7917 q 0.76554,0.31762 1.52294,0.46421 0.76555,0.13845 1.44151,0.13845 0.78183,0 1.1646,-0.24432 0.39092,-0.25247 0.39092,-0.65153 0,-0.18731 -0.0814,-0.34205 -0.0814,-0.15474 -0.30948,-0.29319 -0.21989,-0.14659 -0.62709,-0.29318 -0.40721,-0.15474 -1.06688,-0.34205 -0.61081,-0.17103 -1.07502,-0.38278 -0.45607,-0.21989 -0.7574,-0.51308 -0.30133,-0.29318 -0.45607,-0.67596 -0.14659,-0.39091 -0.14659,-0.91213 0,-0.50494 0.22803,-0.95286 0.22804,-0.44793 0.67596,-0.78184 0.45607,-0.34205 1.13203,-0.53751 0.67596,-0.19545 1.57996,-0.19545 0.78183,0 1.38449,0.0814 0.60266,0.0814 1.06688,0.17917 v 1.62067 q -0.70854,-0.22803 -1.33563,-0.31762 -0.61895,-0.0977 -1.22976,-0.0977 -0.61081,0 -0.98544,0.21989 -0.36648,0.21989 -0.36648,0.61081 0,0.18731 0.0733,0.33391 0.0733,0.14659 0.28504,0.28504 0.21989,0.13845 0.60266,0.29319 0.39092,0.14659 1.02616,0.32576 0.71668,0.20361 1.20532,0.43978 0.48865,0.22804 0.78184,0.52123 0.30133,0.29318 0.43163,0.66781 0.13031,0.37463 0.13031,0.85513 z" />
        <path
           inkscape:connector-curvature="0"
           id="path1398"
           style="stroke-width:0.34748131;fill:#ffffff;fill-opacity:1"
           d="m 159.09947,233.08611 -2.85044,-6.3524 -0.58637,-1.36821 v 4.4141 3.30651 h -1.82428 v -10.64434 h 2.45952 l 2.90744,6.39312 0.51308,1.24604 v -4.69914 -2.94002 h 1.82428 v 10.64434 z" />
        <path
           inkscape:connector-curvature="0"
           id="path1400"
           style="stroke-width:0.34748131;fill:#ffffff;fill-opacity:1"
           d="m 170.59893,228.31367 q 0,0.2036 -0.0163,0.52936 -0.008,0.32577 -0.0326,0.61081 h -5.44025 q 0,0.54565 0.16288,0.961 0.17103,0.41535 0.47236,0.70039 0.30947,0.2769 0.73297,0.4235 0.43163,0.14659 0.95286,0.14659 0.60266,0 1.28676,-0.0896 0.69225,-0.0977 1.43336,-0.30948 v 1.57995 q -0.31762,0.0896 -0.69224,0.16289 -0.37463,0.0733 -0.76555,0.1303 -0.39092,0.057 -0.78998,0.0814 -0.39906,0.0326 -0.77369,0.0326 -0.94471,0 -1.69397,-0.26876 -0.74925,-0.26875 -1.27048,-0.78997 -0.52122,-0.52937 -0.79812,-1.30306 -0.2769,-0.77369 -0.2769,-1.7917 0,-1.00987 0.2769,-1.83242 0.2769,-0.8307 0.78184,-1.41707 0.50493,-0.59452 1.22161,-0.91214 0.72482,-0.32576 1.61253,-0.32576 0.87956,0 1.55552,0.2769 0.67596,0.26875 1.13203,0.7574 0.45607,0.48864 0.69225,1.1646 0.23618,0.67596 0.23618,1.48223 z m -2.01974,-0.28505 q 0.008,-0.48864 -0.12216,-0.84698 -0.1303,-0.36649 -0.35834,-0.60267 -0.21989,-0.23617 -0.52122,-0.35019 -0.29319,-0.11402 -0.63524,-0.11402 -0.74926,0 -1.22976,0.50493 -0.4805,0.49679 -0.57008,1.40893 z" />
        <path
           inkscape:connector-curvature="0"
           id="path1402"
           style="stroke-width:0.34748131;fill:#ffffff;fill-opacity:1"
           d="m 177.76573,233.08611 -0.0489,-1.08317 q -0.26061,0.2769 -0.54566,0.51308 -0.28504,0.22803 -0.62709,0.39906 -0.34205,0.17103 -0.74926,0.26061 -0.39906,0.0977 -0.87956,0.0977 -0.63524,0 -1.11574,-0.18731 -0.4805,-0.18732 -0.80627,-0.52123 -0.32576,-0.3339 -0.49679,-0.80626 -0.16288,-0.47236 -0.16288,-1.04245 0,-0.58637 0.24432,-1.08316 0.25247,-0.49679 0.7574,-0.85513 0.51308,-0.35834 1.27048,-0.56194 0.76555,-0.20361 1.7917,-0.20361 h 1.08317 v -0.49678 q 0,-0.31762 -0.0896,-0.57009 -0.0896,-0.26061 -0.29318,-0.43978 -0.19546,-0.17917 -0.51308,-0.2769 -0.31762,-0.0977 -0.78183,-0.0977 -0.73297,0 -1.44965,0.17103 -0.70854,0.16288 -1.37636,0.46421 v -1.5881 q 0.59452,-0.23618 1.36821,-0.39092 0.78184,-0.15473 1.62068,-0.15473 0.92028,0 1.57995,0.17917 0.65967,0.17102 1.08317,0.52122 0.43163,0.35019 0.63524,0.87956 0.2036,0.52122 0.2036,1.22161 v 5.65201 z m -0.28504,-3.6567 h -1.21347 q -0.50494,0 -0.85513,0.0977 -0.3502,0.0977 -0.57009,0.26875 -0.21989,0.17103 -0.32576,0.39906 -0.0977,0.21989 -0.0977,0.47236 0,0.50493 0.32576,0.77369 0.32577,0.26061 0.88771,0.26061 0.41535,0 0.86327,-0.30133 0.44793,-0.30133 0.98544,-0.86328 z" />
        <path
           inkscape:connector-curvature="0"
           id="path1404"
           style="stroke-width:0.34748131;fill:#ffffff;fill-opacity:1"
           d="m 187.09072,228.02862 q 0.0163,-0.46421 -0.0489,-0.78997 -0.057,-0.32577 -0.19546,-0.53751 -0.13031,-0.21175 -0.32577,-0.30948 -0.19545,-0.0977 -0.44792,-0.0977 -0.43978,0 -0.91214,0.36649 -0.46421,0.35834 -1.02616,1.18903 v 5.23666 h -2.03602 v -8.2744 h 1.79985 l 0.0733,1.20532 q 0.2036,-0.31762 0.45607,-0.57008 0.26061,-0.25247 0.57009,-0.43164 0.31762,-0.18732 0.70039,-0.28504 0.38277,-0.0977 0.83884,-0.0977 0.6271,0 1.1076,0.21989 0.48864,0.21174 0.81441,0.63524 0.33391,0.42349 0.48864,1.06687 0.16289,0.63524 0.13845,1.47408 z" />
        <path
           inkscape:connector-curvature="0"
           id="path1406"
           style="stroke-width:0.34748131;fill:#ffffff;fill-opacity:1"
           d="m 198.39472,228.80231 q 0,1.14018 -0.32577,1.97087 -0.31762,0.8307 -0.89585,1.3845 -0.57008,0.54565 -1.35192,0.81441 -0.78183,0.26061 -1.70211,0.26061 -0.904,0 -1.68583,-0.13845 -0.77369,-0.13031 -1.48223,-0.35834 V 221.5785 h 1.98716 v 2.70384 l -0.0814,1.62882 q 0.44793,-0.57823 1.04245,-0.92843 0.60266,-0.35019 1.4415,-0.35019 0.73297,0 1.30306,0.29318 0.57008,0.29319 0.95285,0.83885 0.39092,0.53751 0.59452,1.31119 0.20361,0.76555 0.20361,1.72655 z m -2.08489,0.0814 q 0,-0.6841 -0.0977,-1.1646 -0.0977,-0.4805 -0.28504,-0.78998 -0.17917,-0.30948 -0.44793,-0.44792 -0.26061,-0.1466 -0.60266,-0.1466 -0.50494,0 -0.96915,0.40721 -0.45607,0.4072 -0.96915,1.10759 v 3.61598 q 0.23618,0.0896 0.57823,0.14659 0.3502,0.057 0.70854,0.057 0.47236,0 0.85513,-0.19546 0.39092,-0.19545 0.65967,-0.55379 0.2769,-0.35834 0.42349,-0.87142 0.1466,-0.52122 0.1466,-1.16461 z" />
        <path
           inkscape:connector-curvature="0"
           id="path1408"
           style="stroke-width:0.34748131;fill:#ffffff;fill-opacity:1"
           d="m 205.11359,232.18211 q -0.43163,1.07502 -0.90399,1.88129 -0.46421,0.81441 -1.02616,1.35192 -0.56194,0.54565 -1.25419,0.81441 -0.6841,0.27689 -1.53923,0.27689 -0.2036,0 -0.44793,-0.0244 -0.23617,-0.0163 -0.48864,-0.057 v -1.68582 q 0.0977,0.0163 0.21989,0.0326 0.1303,0.0244 0.26875,0.0326 0.13845,0.0163 0.2769,0.0244 0.1466,0.008 0.26876,0.008 0.34205,0 0.63524,-0.13031 0.29319,-0.13031 0.53751,-0.36648 0.25247,-0.22804 0.45607,-0.5538 0.2036,-0.31762 0.35834,-0.70039 l -3.28207,-8.2744 h 2.21519 l 1.71841,4.69099 0.51307,1.51481 0.50494,-1.44965 1.73469,-4.75615 h 2.13375 z" />
      </g>
    </g>
  </g>
</svg>
